<svg xmlns="http://www.w3.org/2000/svg" width="560" height="80" fill="none"><g clip-path="url(#a)"><mask id="b" width="265" height="175" x="-76" y="-24" maskUnits="userSpaceOnUse" style="mask-type:luminance"><path fill="#fff" d="m188.478-23.8.001 173.944H-75.654l16.086-106.49L19.36-23.798h169.117Z"/></mask><g fill="#FEB602" mask="url(#b)"><path d="M185.046 77.651a1.609 1.609 0 1 0 0 3.218 1.609 1.609 0 0 0 0-3.218ZM175.397 77.651a1.608 1.608 0 1 0 0 3.217 1.608 1.608 0 0 0 0-3.217ZM165.745 77.651a1.609 1.609 0 1 0 0 3.218 1.609 1.609 0 0 0 0-3.218ZM156.1 77.651a1.608 1.608 0 1 0 0 3.217 1.608 1.608 0 0 0 0-3.217ZM146.443 77.651a1.608 1.608 0 1 0 0 3.217 1.608 1.608 0 0 0 0-3.217ZM136.786 77.651a1.61 1.61 0 1 0 0 3.219 1.61 1.61 0 0 0 0-3.219ZM127.14 77.651a1.608 1.608 0 1 0 0 3.217 1.608 1.608 0 0 0 0-3.217ZM117.486 77.651a1.608 1.608 0 1 0 0 3.217 1.608 1.608 0 0 0 0-3.217ZM107.84 77.651a1.609 1.609 0 1 0 0 3.218 1.609 1.609 0 0 0 0-3.218ZM98.182 77.651a1.609 1.609 0 1 0 0 3.218 1.609 1.609 0 0 0 0-3.218ZM185.046 68a1.609 1.609 0 1 0 0 3.218 1.609 1.609 0 0 0 0-3.217ZM175.397 68a1.608 1.608 0 1 0 0 3.218 1.608 1.608 0 0 0 0-3.217ZM165.745 68a1.609 1.609 0 1 0 0 3.218 1.609 1.609 0 0 0 0-3.217ZM156.1 68a1.608 1.608 0 1 0 0 3.217 1.608 1.608 0 0 0 0-3.216ZM146.443 68a1.608 1.608 0 1 0 0 3.217 1.608 1.608 0 0 0 0-3.216ZM136.786 68a1.61 1.61 0 1 0 0 3.22 1.61 1.61 0 0 0 0-3.22ZM127.14 68a1.608 1.608 0 1 0 0 3.218 1.608 1.608 0 0 0 0-3.217ZM117.486 68a1.608 1.608 0 1 0 0 3.218 1.608 1.608 0 0 0 0-3.217ZM107.84 68a1.609 1.609 0 1 0-.001 3.218A1.609 1.609 0 0 0 107.84 68ZM98.182 68a1.609 1.609 0 1 0 0 3.218 1.609 1.609 0 0 0 0-3.217ZM185.046 58.346a1.609 1.609 0 1 0 0 3.218 1.609 1.609 0 0 0 0-3.218ZM175.397 58.346a1.608 1.608 0 1 0 0 3.217 1.608 1.608 0 0 0 0-3.217ZM165.745 58.346a1.609 1.609 0 1 0 0 3.217 1.609 1.609 0 0 0 0-3.217ZM156.1 58.346a1.608 1.608 0 1 0 0 3.217 1.608 1.608 0 0 0 0-3.217ZM146.443 58.346a1.608 1.608 0 1 0 0 3.217 1.608 1.608 0 0 0 0-3.217ZM136.786 58.346a1.61 1.61 0 1 0 0 3.219 1.61 1.61 0 0 0 0-3.218ZM127.14 58.346a1.608 1.608 0 1 0 0 3.217 1.608 1.608 0 0 0 0-3.217ZM117.486 58.346a1.608 1.608 0 1 0 0 3.217 1.608 1.608 0 0 0 0-3.217ZM107.84 58.346a1.609 1.609 0 1 0 0 3.217 1.609 1.609 0 0 0 0-3.217ZM98.182 58.346a1.609 1.609 0 1 0 0 3.218 1.609 1.609 0 0 0 0-3.218ZM185.046 48.696a1.609 1.609 0 1 0 0 3.217 1.609 1.609 0 0 0 0-3.217ZM175.397 48.696a1.608 1.608 0 1 0 0 3.216 1.608 1.608 0 0 0 0-3.216ZM165.745 48.696a1.609 1.609 0 1 0 0 3.217 1.609 1.609 0 0 0 0-3.217ZM156.1 48.696a1.608 1.608 0 1 0 0 3.216 1.608 1.608 0 0 0 0-3.216ZM146.443 48.696a1.608 1.608 0 1 0 0 3.216 1.608 1.608 0 0 0 0-3.216ZM136.786 48.696a1.61 1.61 0 1 0 0 3.218 1.61 1.61 0 0 0 0-3.218ZM127.14 48.696a1.608 1.608 0 1 0 0 3.216 1.608 1.608 0 0 0 0-3.216ZM117.486 48.696a1.608 1.608 0 1 0 0 3.216 1.608 1.608 0 0 0 0-3.216ZM107.84 48.696a1.609 1.609 0 1 0 0 3.217 1.609 1.609 0 0 0 0-3.217ZM98.182 48.696a1.609 1.609 0 1 0 0 3.217 1.609 1.609 0 0 0 0-3.217ZM185.046 39.048a1.609 1.609 0 1 0 0 3.218 1.609 1.609 0 0 0 0-3.218ZM175.397 39.045a1.608 1.608 0 1 0 0 3.217 1.608 1.608 0 0 0 0-3.217ZM165.745 39.045a1.609 1.609 0 1 0 0 3.217 1.609 1.609 0 0 0 0-3.217ZM156.1 39.048a1.608 1.608 0 1 0 0 3.217 1.608 1.608 0 0 0 0-3.217ZM146.443 39.045a1.608 1.608 0 1 0 0 3.217 1.608 1.608 0 0 0 0-3.217ZM136.786 39.048a1.61 1.61 0 1 0 0 3.219 1.61 1.61 0 0 0 0-3.219ZM127.14 39.045a1.608 1.608 0 1 0 0 3.217 1.608 1.608 0 0 0 0-3.217ZM117.486 39.045a1.608 1.608 0 1 0 0 3.217 1.608 1.608 0 0 0 0-3.217ZM107.84 39.048a1.609 1.609 0 1 0 0 3.218 1.609 1.609 0 0 0 0-3.218ZM98.182 39.045a1.609 1.609 0 1 0 0 3.217 1.609 1.609 0 0 0 0-3.217ZM185.046 29.39a1.609 1.609 0 1 0 0 3.218 1.609 1.609 0 0 0 0-3.217ZM175.397 29.39a1.608 1.608 0 1 0 0 3.218 1.608 1.608 0 0 0 0-3.217ZM165.745 29.39a1.609 1.609 0 1 0 0 3.218 1.609 1.609 0 0 0 0-3.217ZM156.1 29.39a1.608 1.608 0 1 0 0 3.218 1.608 1.608 0 0 0 0-3.217ZM146.443 29.39a1.608 1.608 0 1 0 0 3.218 1.608 1.608 0 0 0 0-3.217ZM136.786 29.39a1.61 1.61 0 1 0 0 3.22 1.61 1.61 0 0 0 0-3.22ZM127.14 29.39a1.608 1.608 0 1 0 0 3.218 1.608 1.608 0 0 0 0-3.217ZM117.486 29.39a1.608 1.608 0 1 0 0 3.218 1.608 1.608 0 0 0 0-3.217ZM107.84 29.39a1.609 1.609 0 1 0 0 3.218 1.609 1.609 0 0 0 0-3.217ZM98.182 29.39a1.609 1.609 0 1 0 0 3.218 1.609 1.609 0 0 0 0-3.217ZM185.046 19.74a1.609 1.609 0 1 0 0 3.217 1.609 1.609 0 0 0 0-3.217ZM175.397 19.74a1.608 1.608 0 1 0 0 3.217 1.608 1.608 0 0 0 0-3.217ZM165.745 19.74a1.609 1.609 0 1 0 0 3.217 1.609 1.609 0 0 0 0-3.217ZM156.1 19.74a1.608 1.608 0 1 0 0 3.217 1.608 1.608 0 0 0 0-3.217ZM146.443 19.74a1.608 1.608 0 1 0 0 3.217 1.608 1.608 0 0 0 0-3.217ZM136.786 19.74a1.61 1.61 0 1 0 0 3.218 1.61 1.61 0 0 0 0-3.218ZM127.14 19.74a1.608 1.608 0 1 0 0 3.217 1.608 1.608 0 0 0 0-3.217ZM117.486 19.74a1.608 1.608 0 1 0 0 3.217 1.608 1.608 0 0 0 0-3.217ZM107.84 19.74a1.609 1.609 0 1 0 0 3.217 1.609 1.609 0 0 0 0-3.217ZM98.182 19.74a1.609 1.609 0 1 0 0 3.217 1.609 1.609 0 0 0 0-3.217ZM185.046 10.09a1.609 1.609 0 1 0 0 3.216 1.609 1.609 0 0 0 0-3.217ZM175.397 10.09a1.608 1.608 0 1 0 0 3.216 1.608 1.608 0 0 0 0-3.217ZM165.745 10.09a1.609 1.609 0 1 0 0 3.216 1.609 1.609 0 0 0 0-3.217ZM156.1 10.09a1.608 1.608 0 1 0 0 3.216 1.608 1.608 0 0 0 0-3.217ZM146.443 10.09a1.608 1.608 0 1 0 0 3.216 1.608 1.608 0 0 0 0-3.217ZM136.786 10.09a1.61 1.61 0 1 0 0 3.218 1.61 1.61 0 0 0 0-3.219ZM127.14 10.09a1.608 1.608 0 1 0 0 3.216 1.608 1.608 0 0 0 0-3.217ZM117.486 10.09a1.608 1.608 0 1 0 0 3.216 1.608 1.608 0 0 0 0-3.217ZM107.84 10.09a1.609 1.609 0 1 0 0 3.216 1.609 1.609 0 0 0 0-3.217ZM98.182 10.09a1.609 1.609 0 1 0 0 3.216 1.609 1.609 0 0 0 0-3.217ZM185.046.439a1.609 1.609 0 1 0 0 3.217 1.609 1.609 0 0 0 0-3.217ZM175.397.435a1.608 1.608 0 1 0 0 3.217 1.608 1.608 0 0 0 0-3.217ZM165.745.435a1.609 1.609 0 1 0 0 3.218 1.609 1.609 0 0 0 0-3.218ZM156.1.438a1.608 1.608 0 1 0 0 3.217 1.608 1.608 0 0 0 0-3.217ZM146.443.435a1.608 1.608 0 1 0 0 3.217 1.608 1.608 0 0 0 0-3.217ZM136.786.438a1.61 1.61 0 1 0 0 3.219 1.61 1.61 0 0 0 0-3.219ZM127.14.435a1.608 1.608 0 1 0 0 3.217 1.608 1.608 0 0 0 0-3.217ZM117.486.435a1.608 1.608 0 1 0 0 3.217 1.608 1.608 0 0 0 0-3.217ZM107.84.435a1.609 1.609 0 1 0 0 3.218 1.609 1.609 0 0 0 0-3.218ZM98.182.435a1.609 1.609 0 1 0 0 3.218 1.609 1.609 0 0 0 0-3.218ZM88.53 77.651a1.609 1.609 0 1 0 0 3.218 1.609 1.609 0 0 0 0-3.218ZM78.88 77.651a1.609 1.609 0 1 0 0 3.218 1.609 1.609 0 0 0 0-3.218ZM69.23 77.651a1.609 1.609 0 1 0 0 3.217 1.609 1.609 0 0 0 0-3.217ZM59.583 77.651a1.609 1.609 0 1 0 0 3.218 1.609 1.609 0 0 0 0-3.218ZM49.928 77.651a1.609 1.609 0 1 0 0 3.218 1.609 1.609 0 0 0 0-3.218ZM40.27 77.651a1.609 1.609 0 1 0 0 3.218 1.609 1.609 0 0 0 0-3.218ZM30.625 77.651a1.609 1.609 0 1 0 0 3.218 1.609 1.609 0 0 0 0-3.218ZM20.97 77.651a1.609 1.609 0 1 0 0 3.218 1.609 1.609 0 0 0 0-3.218ZM11.324 77.651a1.609 1.609 0 1 0 0 3.218 1.609 1.609 0 0 0 0-3.218ZM1.669 77.651a1.609 1.609 0 1 0 0 3.218 1.609 1.609 0 0 0 0-3.218ZM88.53 68a1.609 1.609 0 1 0 0 3.218 1.609 1.609 0 0 0 0-3.217ZM78.88 68a1.609 1.609 0 1 0 0 3.218 1.609 1.609 0 0 0 0-3.217ZM69.23 68a1.609 1.609 0 1 0 0 3.218 1.609 1.609 0 0 0 0-3.217ZM59.583 68a1.609 1.609 0 1 0 0 3.218 1.609 1.609 0 0 0 0-3.217ZM49.928 68a1.609 1.609 0 1 0 0 3.218 1.609 1.609 0 0 0 0-3.217ZM40.27 68a1.609 1.609 0 1 0 0 3.218 1.609 1.609 0 0 0 0-3.217ZM30.625 68a1.609 1.609 0 1 0 0 3.218 1.609 1.609 0 0 0 0-3.217ZM20.97 68a1.609 1.609 0 1 0 0 3.218 1.609 1.609 0 0 0 0-3.217ZM11.324 68a1.609 1.609 0 1 0 0 3.218 1.609 1.609 0 0 0 0-3.217ZM1.669 68a1.609 1.609 0 1 0 0 3.218 1.609 1.609 0 0 0 0-3.217ZM88.53 58.346a1.609 1.609 0 1 0 0 3.218 1.609 1.609 0 0 0 0-3.218ZM78.88 58.346a1.609 1.609 0 1 0 0 3.218 1.609 1.609 0 0 0 0-3.218ZM69.23 58.346a1.609 1.609 0 1 0 0 3.217 1.609 1.609 0 0 0 0-3.217ZM59.583 58.346a1.609 1.609 0 1 0 0 3.218 1.609 1.609 0 0 0 0-3.218ZM49.928 58.346a1.609 1.609 0 1 0 0 3.218 1.609 1.609 0 0 0 0-3.218ZM40.27 58.346a1.609 1.609 0 1 0 0 3.218 1.609 1.609 0 0 0 0-3.218ZM30.625 58.346a1.609 1.609 0 1 0 0 3.218 1.609 1.609 0 0 0 0-3.218ZM20.97 58.346a1.609 1.609 0 1 0 0 3.218 1.609 1.609 0 0 0 0-3.218ZM11.324 58.346a1.609 1.609 0 1 0 0 3.218 1.609 1.609 0 0 0 0-3.218ZM1.669 58.346a1.609 1.609 0 1 0 0 3.218 1.609 1.609 0 0 0 0-3.218ZM88.53 48.696a1.609 1.609 0 1 0 0 3.217 1.609 1.609 0 0 0 0-3.217ZM78.88 48.696a1.609 1.609 0 1 0 0 3.217 1.609 1.609 0 0 0 0-3.217ZM69.23 48.696a1.609 1.609 0 1 0 0 3.217 1.609 1.609 0 0 0 0-3.217ZM59.583 48.696a1.609 1.609 0 1 0 0 3.217 1.609 1.609 0 0 0 0-3.217ZM49.928 48.696a1.609 1.609 0 1 0 0 3.217 1.609 1.609 0 0 0 0-3.217ZM40.27 48.696a1.609 1.609 0 1 0 0 3.217 1.609 1.609 0 0 0 0-3.217ZM30.625 48.696a1.609 1.609 0 1 0 0 3.217 1.609 1.609 0 0 0 0-3.217ZM20.97 48.696a1.609 1.609 0 1 0 0 3.217 1.609 1.609 0 0 0 0-3.217ZM11.324 48.696a1.609 1.609 0 1 0 0 3.217 1.609 1.609 0 0 0 0-3.217ZM1.669 48.696a1.609 1.609 0 1 0 0 3.217 1.609 1.609 0 0 0 0-3.217ZM88.53 39.048a1.609 1.609 0 1 0 0 3.218 1.609 1.609 0 0 0 0-3.218ZM78.88 39.045a1.609 1.609 0 1 0 0 3.217 1.609 1.609 0 0 0 0-3.217ZM69.23 39.045a1.609 1.609 0 1 0 0 3.217 1.609 1.609 0 0 0 0-3.217ZM59.583 39.048a1.609 1.609 0 1 0 0 3.218 1.609 1.609 0 0 0 0-3.218ZM49.928 39.045a1.609 1.609 0 1 0 0 3.217 1.609 1.609 0 0 0 0-3.217ZM40.27 39.048a1.609 1.609 0 1 0 0 3.218 1.609 1.609 0 0 0 0-3.218ZM30.625 39.045a1.609 1.609 0 1 0 0 3.217 1.609 1.609 0 0 0 0-3.217ZM20.97 39.045a1.609 1.609 0 1 0 0 3.218 1.609 1.609 0 0 0 0-3.218ZM11.324 39.048a1.609 1.609 0 1 0 0 3.218 1.609 1.609 0 0 0 0-3.218ZM1.669 39.045a1.609 1.609 0 1 0 0 3.218 1.609 1.609 0 0 0 0-3.218ZM88.53 29.39a1.609 1.609 0 1 0 0 3.218 1.609 1.609 0 0 0 0-3.217ZM78.88 29.39a1.609 1.609 0 1 0 0 3.218 1.609 1.609 0 0 0 0-3.217ZM69.23 29.39a1.609 1.609 0 1 0 0 3.218 1.609 1.609 0 0 0 0-3.217ZM59.583 29.39a1.609 1.609 0 1 0 0 3.218 1.609 1.609 0 0 0 0-3.217ZM49.928 29.39a1.609 1.609 0 1 0 0 3.218 1.609 1.609 0 0 0 0-3.217ZM40.27 29.39a1.609 1.609 0 1 0 0 3.218 1.609 1.609 0 0 0 0-3.217ZM30.625 29.39a1.609 1.609 0 1 0 0 3.218 1.609 1.609 0 0 0 0-3.217ZM20.97 29.39a1.609 1.609 0 1 0 0 3.218 1.609 1.609 0 0 0 0-3.217ZM11.324 29.39a1.609 1.609 0 1 0 0 3.218 1.609 1.609 0 0 0 0-3.217ZM1.669 29.39a1.609 1.609 0 1 0 0 3.218 1.609 1.609 0 0 0 0-3.217ZM88.53 19.74a1.609 1.609 0 1 0 0 3.217 1.609 1.609 0 0 0 0-3.217ZM78.88 19.74a1.609 1.609 0 1 0 0 3.217 1.609 1.609 0 0 0 0-3.217ZM69.23 19.74a1.609 1.609 0 1 0 0 3.217 1.609 1.609 0 0 0 0-3.217ZM59.583 19.74a1.609 1.609 0 1 0 0 3.217 1.609 1.609 0 0 0 0-3.217ZM49.928 19.74a1.609 1.609 0 1 0 0 3.217 1.609 1.609 0 0 0 0-3.217ZM40.27 19.74a1.609 1.609 0 1 0 0 3.217 1.609 1.609 0 0 0 0-3.217ZM30.625 19.74a1.609 1.609 0 1 0 0 3.217 1.609 1.609 0 0 0 0-3.217ZM20.97 19.74a1.609 1.609 0 1 0 0 3.217 1.609 1.609 0 0 0 0-3.217ZM11.324 19.74a1.609 1.609 0 1 0 0 3.217 1.609 1.609 0 0 0 0-3.217ZM1.669 19.74a1.609 1.609 0 1 0 0 3.217 1.609 1.609 0 0 0 0-3.217ZM88.53 10.09a1.609 1.609 0 1 0 0 3.216 1.609 1.609 0 0 0 0-3.217ZM78.88 10.09a1.609 1.609 0 1 0 0 3.216 1.609 1.609 0 0 0 0-3.217ZM69.23 10.09a1.609 1.609 0 1 0 0 3.216 1.609 1.609 0 0 0 0-3.217ZM59.583 10.09a1.609 1.609 0 1 0 0 3.216 1.609 1.609 0 0 0 0-3.217ZM49.928 10.09a1.609 1.609 0 1 0 0 3.216 1.609 1.609 0 0 0 0-3.217ZM40.27 10.09a1.609 1.609 0 1 0 0 3.216 1.609 1.609 0 0 0 0-3.217ZM30.625 10.09a1.609 1.609 0 1 0 0 3.216 1.609 1.609 0 0 0 0-3.217ZM20.97 10.09a1.609 1.609 0 1 0 0 3.217 1.609 1.609 0 0 0 0-3.218ZM11.324 10.09a1.609 1.609 0 1 0 0 3.216 1.609 1.609 0 0 0 0-3.217ZM1.669 10.09a1.609 1.609 0 1 0 0 3.216 1.609 1.609 0 0 0 0-3.217ZM88.53.435a1.609 1.609 0 1 0 0 3.218 1.609 1.609 0 0 0 0-3.218ZM78.88.435a1.609 1.609 0 1 0 0 3.218 1.609 1.609 0 0 0 0-3.218ZM69.23.435a1.609 1.609 0 1 0 0 3.217 1.609 1.609 0 0 0 0-3.217ZM59.583.438a1.609 1.609 0 1 0 0 3.218 1.609 1.609 0 0 0 0-3.218ZM49.928.435a1.609 1.609 0 1 0 0 3.218 1.609 1.609 0 0 0 0-3.218ZM40.27.438a1.609 1.609 0 1 0 0 3.218 1.609 1.609 0 0 0 0-3.218ZM30.625.435a1.609 1.609 0 1 0 0 3.218 1.609 1.609 0 0 0 0-3.218ZM20.97.435a1.609 1.609 0 1 0 0 3.218 1.609 1.609 0 0 0 0-3.218ZM11.324.435a1.609 1.609 0 1 0 0 3.218 1.609 1.609 0 0 0 0-3.218ZM1.669.435a1.609 1.609 0 1 0 0 3.218 1.609 1.609 0 0 0 0-3.218Z"/></g><mask id="c" width="265" height="175" x="191" y="-24" maskUnits="userSpaceOnUse" style="mask-type:luminance"><path fill="#fff" d="m191.522-23.8-.001 173.944h264.133l-16.086-106.49-78.929-67.453H191.522Z"/></mask><g fill="#FEB602" mask="url(#c)"><path d="M194.954 77.651a1.609 1.609 0 1 1 0 3.218 1.609 1.609 0 0 1 0-3.218ZM204.603 77.651a1.608 1.608 0 1 1 0 3.217 1.608 1.608 0 0 1 0-3.217ZM214.255 77.651a1.609 1.609 0 1 1 0 3.218 1.609 1.609 0 0 1 0-3.218ZM223.9 77.651a1.608 1.608 0 1 1 0 3.217 1.608 1.608 0 0 1 0-3.217ZM233.557 77.651a1.608 1.608 0 1 1 0 3.217 1.608 1.608 0 0 1 0-3.217ZM243.214 77.651a1.61 1.61 0 1 1 0 3.219 1.61 1.61 0 0 1 0-3.219ZM252.86 77.651a1.608 1.608 0 1 1 0 3.217 1.608 1.608 0 0 1 0-3.217ZM262.514 77.651a1.608 1.608 0 1 1 0 3.217 1.608 1.608 0 0 1 0-3.217ZM272.16 77.651a1.609 1.609 0 1 1 0 3.218 1.609 1.609 0 0 1 0-3.218ZM281.818 77.651a1.608 1.608 0 1 1 0 3.217 1.608 1.608 0 0 1 0-3.217ZM194.954 68a1.609 1.609 0 1 1 0 3.218 1.609 1.609 0 0 1 0-3.217ZM204.603 68a1.608 1.608 0 1 1 0 3.218 1.608 1.608 0 0 1 0-3.217ZM214.255 68a1.609 1.609 0 1 1 0 3.218 1.609 1.609 0 0 1 0-3.217ZM223.9 68a1.608 1.608 0 1 1 0 3.217 1.608 1.608 0 0 1 0-3.216ZM233.557 68a1.608 1.608 0 1 1 0 3.217 1.608 1.608 0 0 1 0-3.216ZM243.214 68a1.61 1.61 0 1 1 0 3.22 1.61 1.61 0 0 1 0-3.22ZM252.86 68a1.608 1.608 0 1 1 0 3.218 1.608 1.608 0 0 1 0-3.217ZM262.514 68a1.608 1.608 0 1 1 0 3.218 1.608 1.608 0 0 1 0-3.217ZM272.16 68a1.609 1.609 0 1 1 .001 3.218A1.609 1.609 0 0 1 272.16 68ZM281.818 68a1.608 1.608 0 1 1 0 3.217 1.608 1.608 0 0 1 0-3.216ZM194.954 58.346a1.609 1.609 0 1 1 0 3.218 1.609 1.609 0 0 1 0-3.218ZM204.603 58.346a1.608 1.608 0 1 1 0 3.217 1.608 1.608 0 0 1 0-3.217ZM214.255 58.346a1.609 1.609 0 1 1 0 3.217 1.609 1.609 0 0 1 0-3.217ZM223.9 58.346a1.608 1.608 0 1 1 0 3.217 1.608 1.608 0 0 1 0-3.217ZM233.557 58.346a1.608 1.608 0 1 1 0 3.217 1.608 1.608 0 0 1 0-3.217ZM243.214 58.346a1.61 1.61 0 1 1 0 3.219 1.61 1.61 0 0 1 0-3.218ZM252.86 58.346a1.608 1.608 0 1 1 0 3.217 1.608 1.608 0 0 1 0-3.217ZM262.514 58.346a1.608 1.608 0 1 1 0 3.217 1.608 1.608 0 0 1 0-3.217ZM272.16 58.346a1.609 1.609 0 1 1 0 3.217 1.609 1.609 0 0 1 0-3.217ZM281.818 58.346a1.608 1.608 0 1 1 0 3.217 1.608 1.608 0 0 1 0-3.217ZM194.954 48.696a1.609 1.609 0 1 1 0 3.217 1.609 1.609 0 0 1 0-3.217ZM204.603 48.696a1.608 1.608 0 1 1 0 3.216 1.608 1.608 0 0 1 0-3.216ZM214.255 48.696a1.609 1.609 0 1 1 0 3.217 1.609 1.609 0 0 1 0-3.217ZM223.9 48.696a1.608 1.608 0 1 1 0 3.216 1.608 1.608 0 0 1 0-3.216ZM233.557 48.696a1.608 1.608 0 1 1 0 3.216 1.608 1.608 0 0 1 0-3.216ZM243.214 48.696a1.61 1.61 0 1 1 0 3.218 1.61 1.61 0 0 1 0-3.218ZM252.86 48.696a1.608 1.608 0 1 1 0 3.216 1.608 1.608 0 0 1 0-3.216ZM262.514 48.696a1.608 1.608 0 1 1 0 3.216 1.608 1.608 0 0 1 0-3.216ZM272.16 48.696a1.609 1.609 0 1 1 0 3.217 1.609 1.609 0 0 1 0-3.217ZM281.818 48.696a1.608 1.608 0 1 1 0 3.216 1.608 1.608 0 0 1 0-3.216ZM194.954 39.048a1.609 1.609 0 1 1 0 3.218 1.609 1.609 0 0 1 0-3.218ZM204.603 39.045a1.608 1.608 0 1 1 0 3.217 1.608 1.608 0 0 1 0-3.217ZM214.255 39.045a1.609 1.609 0 1 1 0 3.217 1.609 1.609 0 0 1 0-3.217ZM223.9 39.048a1.608 1.608 0 1 1 0 3.217 1.608 1.608 0 0 1 0-3.217ZM233.557 39.045a1.608 1.608 0 1 1 0 3.217 1.608 1.608 0 0 1 0-3.217ZM243.214 39.048a1.61 1.61 0 1 1 0 3.219 1.61 1.61 0 0 1 0-3.219ZM252.86 39.045a1.608 1.608 0 1 1 0 3.217 1.608 1.608 0 0 1 0-3.217ZM262.514 39.045a1.608 1.608 0 1 1 0 3.217 1.608 1.608 0 0 1 0-3.217ZM272.16 39.048a1.609 1.609 0 1 1 0 3.218 1.609 1.609 0 0 1 0-3.218ZM281.818 39.045a1.608 1.608 0 1 1 0 3.217 1.608 1.608 0 0 1 0-3.217ZM194.954 29.39a1.609 1.609 0 1 1 0 3.218 1.609 1.609 0 0 1 0-3.217ZM204.603 29.39a1.608 1.608 0 1 1 0 3.218 1.608 1.608 0 0 1 0-3.217ZM214.255 29.39a1.609 1.609 0 1 1 0 3.218 1.609 1.609 0 0 1 0-3.217ZM223.9 29.39a1.608 1.608 0 1 1 0 3.218 1.608 1.608 0 0 1 0-3.217ZM233.557 29.39a1.608 1.608 0 1 1 0 3.218 1.608 1.608 0 0 1 0-3.217ZM243.214 29.39a1.61 1.61 0 1 1 0 3.22 1.61 1.61 0 0 1 0-3.22ZM252.86 29.39a1.608 1.608 0 1 1 0 3.218 1.608 1.608 0 0 1 0-3.217ZM262.514 29.39a1.608 1.608 0 1 1 0 3.218 1.608 1.608 0 0 1 0-3.217ZM272.16 29.39a1.609 1.609 0 1 1 0 3.218 1.609 1.609 0 0 1 0-3.217ZM281.818 29.39a1.608 1.608 0 1 1 0 3.218 1.608 1.608 0 0 1 0-3.217ZM194.954 19.74a1.609 1.609 0 1 1 0 3.217 1.609 1.609 0 0 1 0-3.217ZM204.603 19.74a1.608 1.608 0 1 1 0 3.217 1.608 1.608 0 0 1 0-3.217ZM214.255 19.74a1.609 1.609 0 1 1 0 3.217 1.609 1.609 0 0 1 0-3.217ZM223.9 19.74a1.608 1.608 0 1 1 0 3.217 1.608 1.608 0 0 1 0-3.217ZM233.557 19.74a1.608 1.608 0 1 1 0 3.217 1.608 1.608 0 0 1 0-3.217ZM243.214 19.74a1.61 1.61 0 1 1 0 3.218 1.61 1.61 0 0 1 0-3.218ZM252.86 19.74a1.608 1.608 0 1 1 0 3.217 1.608 1.608 0 0 1 0-3.217ZM262.514 19.74a1.608 1.608 0 1 1 0 3.217 1.608 1.608 0 0 1 0-3.217ZM272.16 19.74a1.609 1.609 0 1 1 0 3.217 1.609 1.609 0 0 1 0-3.217ZM281.818 19.74a1.608 1.608 0 1 1 0 3.217 1.608 1.608 0 0 1 0-3.217ZM194.954 10.09a1.609 1.609 0 1 1 0 3.216 1.609 1.609 0 0 1 0-3.217ZM204.603 10.09a1.608 1.608 0 1 1 0 3.216 1.608 1.608 0 0 1 0-3.217ZM214.255 10.09a1.609 1.609 0 1 1 0 3.216 1.609 1.609 0 0 1 0-3.217ZM223.9 10.09a1.608 1.608 0 1 1 0 3.216 1.608 1.608 0 0 1 0-3.217ZM233.557 10.09a1.608 1.608 0 1 1 0 3.216 1.608 1.608 0 0 1 0-3.217ZM243.214 10.09a1.61 1.61 0 1 1 0 3.218 1.61 1.61 0 0 1 0-3.219ZM252.86 10.09a1.608 1.608 0 1 1 0 3.216 1.608 1.608 0 0 1 0-3.217ZM262.514 10.09a1.608 1.608 0 1 1 0 3.216 1.608 1.608 0 0 1 0-3.217ZM272.16 10.09a1.609 1.609 0 1 1 0 3.216 1.609 1.609 0 0 1 0-3.217ZM281.818 10.09a1.608 1.608 0 1 1 0 3.216 1.608 1.608 0 0 1 0-3.217ZM194.954.439a1.609 1.609 0 1 1 0 3.217 1.609 1.609 0 0 1 0-3.217ZM204.603.435a1.608 1.608 0 1 1 0 3.217 1.608 1.608 0 0 1 0-3.217ZM214.255.435a1.609 1.609 0 1 1 0 3.218 1.609 1.609 0 0 1 0-3.218ZM223.9.438a1.608 1.608 0 1 1 0 3.217 1.608 1.608 0 0 1 0-3.217ZM233.557.435a1.608 1.608 0 1 1 0 3.217 1.608 1.608 0 0 1 0-3.217ZM243.214.438a1.61 1.61 0 1 1 0 3.219 1.61 1.61 0 0 1 0-3.219ZM252.86.435a1.608 1.608 0 1 1 0 3.217 1.608 1.608 0 0 1 0-3.217ZM262.514.435a1.608 1.608 0 1 1 0 3.217 1.608 1.608 0 0 1 0-3.217ZM272.16.435a1.609 1.609 0 1 1 0 3.218 1.609 1.609 0 0 1 0-3.218ZM281.818.435a1.608 1.608 0 1 1 0 3.217 1.608 1.608 0 0 1 0-3.217ZM291.471 77.651a1.61 1.61 0 1 1 0 3.219 1.61 1.61 0 0 1 0-3.219ZM301.119 77.651a1.609 1.609 0 1 1 0 3.218 1.609 1.609 0 0 1 0-3.218ZM310.77 77.651a1.608 1.608 0 1 1 0 3.217 1.608 1.608 0 0 1 0-3.217ZM320.417 77.651a1.609 1.609 0 1 1 0 3.218 1.609 1.609 0 0 1 0-3.218ZM330.072 77.651a1.608 1.608 0 1 1 0 3.217 1.608 1.608 0 0 1 0-3.217ZM339.73 77.651a1.608 1.608 0 1 1 0 3.217 1.608 1.608 0 0 1 0-3.217ZM349.375 77.651a1.609 1.609 0 1 1 0 3.218 1.609 1.609 0 0 1 0-3.218ZM359.029 77.651a1.609 1.609 0 1 1 0 3.218 1.609 1.609 0 0 1 0-3.218ZM368.676 77.651a1.61 1.61 0 1 1 0 3.219 1.61 1.61 0 0 1 0-3.219ZM378.331 77.651a1.609 1.609 0 1 1 0 3.218 1.609 1.609 0 0 1 0-3.218ZM387.987 77.651a1.608 1.608 0 1 1 0 3.217 1.608 1.608 0 0 1 0-3.217ZM291.471 68a1.61 1.61 0 1 1 0 3.22 1.61 1.61 0 0 1 0-3.22ZM301.119 68a1.609 1.609 0 1 1 0 3.218 1.609 1.609 0 0 1 0-3.217ZM310.77 68a1.608 1.608 0 1 1 0 3.218 1.608 1.608 0 0 1 0-3.217ZM320.417 68a1.609 1.609 0 1 1 0 3.218 1.609 1.609 0 0 1 0-3.217ZM330.072 68a1.608 1.608 0 1 1 0 3.217 1.608 1.608 0 0 1 0-3.216ZM339.73 68a1.608 1.608 0 1 1 0 3.218 1.608 1.608 0 0 1 0-3.217ZM349.375 68a1.609 1.609 0 1 1 0 3.218 1.609 1.609 0 0 1 0-3.217ZM359.029 68a1.609 1.609 0 1 1 0 3.218 1.609 1.609 0 0 1 0-3.217ZM368.676 68a1.61 1.61 0 1 1 0 3.22 1.61 1.61 0 0 1 0-3.22ZM378.331 68a1.609 1.609 0 1 1 .001 3.218 1.609 1.609 0 0 1-.001-3.217ZM387.987 68a1.608 1.608 0 1 1 0 3.218 1.608 1.608 0 0 1 0-3.217ZM291.471 58.346a1.61 1.61 0 1 1 0 3.219 1.61 1.61 0 0 1 0-3.218ZM301.119 58.346a1.609 1.609 0 1 1 0 3.218 1.609 1.609 0 0 1 0-3.218ZM310.77 58.346a1.608 1.608 0 1 1 0 3.217 1.608 1.608 0 0 1 0-3.217ZM320.417 58.346a1.609 1.609 0 1 1 0 3.218 1.609 1.609 0 0 1 0-3.218ZM330.072 58.346a1.608 1.608 0 1 1 0 3.217 1.608 1.608 0 0 1 0-3.217ZM339.73 58.346a1.608 1.608 0 1 1 0 3.217 1.608 1.608 0 0 1 0-3.217ZM349.375 58.346a1.609 1.609 0 1 1 0 3.218 1.609 1.609 0 0 1 0-3.218ZM359.029 58.346a1.609 1.609 0 1 1 0 3.217 1.609 1.609 0 0 1 0-3.217ZM368.676 58.346a1.61 1.61 0 1 1 0 3.219 1.61 1.61 0 0 1 0-3.218ZM378.331 58.346a1.609 1.609 0 1 1 0 3.218 1.609 1.609 0 0 1 0-3.218ZM387.987 58.346a1.608 1.608 0 1 1 0 3.217 1.608 1.608 0 0 1 0-3.217ZM291.471 48.696a1.61 1.61 0 1 1 0 3.218 1.61 1.61 0 0 1 0-3.218ZM301.119 48.696a1.609 1.609 0 1 1 0 3.217 1.609 1.609 0 0 1 0-3.217ZM310.77 48.696a1.608 1.608 0 1 1 0 3.216 1.608 1.608 0 0 1 0-3.216ZM320.417 48.696a1.609 1.609 0 1 1 0 3.217 1.609 1.609 0 0 1 0-3.217ZM330.072 48.696a1.608 1.608 0 1 1 0 3.216 1.608 1.608 0 0 1 0-3.216ZM339.73 48.696a1.608 1.608 0 1 1 0 3.216 1.608 1.608 0 0 1 0-3.216ZM349.375 48.696a1.609 1.609 0 1 1 0 3.217 1.609 1.609 0 0 1 0-3.217ZM359.029 48.696a1.609 1.609 0 1 1 0 3.217 1.609 1.609 0 0 1 0-3.217ZM368.676 48.696a1.61 1.61 0 1 1 0 3.218 1.61 1.61 0 0 1 0-3.218ZM378.331 48.696a1.609 1.609 0 1 1 0 3.217 1.609 1.609 0 0 1 0-3.217ZM387.987 48.696a1.608 1.608 0 1 1 0 3.216 1.608 1.608 0 0 1 0-3.216ZM291.471 39.048a1.61 1.61 0 1 1 0 3.219 1.61 1.61 0 0 1 0-3.219ZM301.119 39.045a1.609 1.609 0 1 1 0 3.217 1.609 1.609 0 0 1 0-3.217ZM310.77 39.045a1.608 1.608 0 1 1 0 3.217 1.608 1.608 0 0 1 0-3.217ZM320.417 39.048a1.609 1.609 0 1 1 0 3.218 1.609 1.609 0 0 1 0-3.218ZM330.072 39.045a1.608 1.608 0 1 1 0 3.217 1.608 1.608 0 0 1 0-3.217ZM339.73 39.048a1.608 1.608 0 1 1 0 3.217 1.608 1.608 0 0 1 0-3.217ZM349.375 39.045a1.609 1.609 0 1 1 0 3.217 1.609 1.609 0 0 1 0-3.217ZM359.029 39.045a1.609 1.609 0 1 1 0 3.217 1.609 1.609 0 0 1 0-3.217ZM368.676 39.048a1.61 1.61 0 1 1 0 3.219 1.61 1.61 0 0 1 0-3.219ZM378.331 39.045a1.609 1.609 0 1 1 0 3.217 1.609 1.609 0 0 1 0-3.217ZM387.987 39.048a1.608 1.608 0 1 1 0 3.217 1.608 1.608 0 0 1 0-3.217ZM291.471 29.39a1.61 1.61 0 1 1 0 3.22 1.61 1.61 0 0 1 0-3.22ZM301.119 29.39a1.609 1.609 0 1 1 0 3.218 1.609 1.609 0 0 1 0-3.217ZM310.77 29.39a1.608 1.608 0 1 1 0 3.218 1.608 1.608 0 0 1 0-3.217ZM320.417 29.39a1.609 1.609 0 1 1 0 3.218 1.609 1.609 0 0 1 0-3.217ZM330.072 29.39a1.608 1.608 0 1 1 0 3.218 1.608 1.608 0 0 1 0-3.217ZM339.73 29.39a1.608 1.608 0 1 1 0 3.218 1.608 1.608 0 0 1 0-3.217ZM349.375 29.39a1.609 1.609 0 1 1 0 3.218 1.609 1.609 0 0 1 0-3.217ZM359.029 29.39a1.609 1.609 0 1 1 0 3.218 1.609 1.609 0 0 1 0-3.217ZM368.676 29.39a1.61 1.61 0 1 1 0 3.22 1.61 1.61 0 0 1 0-3.22ZM378.331 29.39a1.609 1.609 0 1 1 0 3.218 1.609 1.609 0 0 1 0-3.217ZM387.987 29.39a1.608 1.608 0 1 1 0 3.218 1.608 1.608 0 0 1 0-3.217ZM291.471 19.74a1.61 1.61 0 1 1 0 3.218 1.61 1.61 0 0 1 0-3.218ZM301.119 19.74a1.609 1.609 0 1 1 0 3.217 1.609 1.609 0 0 1 0-3.217ZM310.77 19.74a1.608 1.608 0 1 1 0 3.217 1.608 1.608 0 0 1 0-3.217ZM320.417 19.74a1.609 1.609 0 1 1 0 3.217 1.609 1.609 0 0 1 0-3.217ZM330.072 19.74a1.608 1.608 0 1 1 0 3.217 1.608 1.608 0 0 1 0-3.217ZM339.73 19.74a1.608 1.608 0 1 1 0 3.217 1.608 1.608 0 0 1 0-3.217ZM349.375 19.74a1.609 1.609 0 1 1 0 3.217 1.609 1.609 0 0 1 0-3.217ZM359.029 19.74a1.609 1.609 0 1 1 0 3.217 1.609 1.609 0 0 1 0-3.217ZM368.676 19.74a1.61 1.61 0 1 1 0 3.218 1.61 1.61 0 0 1 0-3.218ZM378.331 19.74a1.609 1.609 0 1 1 0 3.217 1.609 1.609 0 0 1 0-3.217ZM387.987 19.74a1.608 1.608 0 1 1 0 3.217 1.608 1.608 0 0 1 0-3.217ZM291.471 10.09a1.61 1.61 0 1 1 0 3.218 1.61 1.61 0 0 1 0-3.219ZM301.119 10.09a1.609 1.609 0 1 1 0 3.216 1.609 1.609 0 0 1 0-3.217ZM310.77 10.09a1.608 1.608 0 1 1 0 3.216 1.608 1.608 0 0 1 0-3.217ZM320.417 10.09a1.609 1.609 0 1 1 0 3.216 1.609 1.609 0 0 1 0-3.217ZM330.072 10.09a1.608 1.608 0 1 1 0 3.216 1.608 1.608 0 0 1 0-3.217ZM339.73 10.09a1.608 1.608 0 1 1 0 3.216 1.608 1.608 0 0 1 0-3.217ZM349.375 10.09a1.609 1.609 0 1 1 0 3.216 1.609 1.609 0 0 1 0-3.217ZM359.029 10.09a1.609 1.609 0 1 1 0 3.216 1.609 1.609 0 0 1 0-3.217ZM368.676 10.09a1.61 1.61 0 1 1 0 3.218 1.61 1.61 0 0 1 0-3.219ZM378.331 10.09a1.609 1.609 0 1 1 0 3.216 1.609 1.609 0 0 1 0-3.217ZM387.987 10.09a1.608 1.608 0 1 1 0 3.216 1.608 1.608 0 0 1 0-3.217ZM291.471.435a1.61 1.61 0 1 1 0 3.219 1.61 1.61 0 0 1 0-3.219ZM301.119.435a1.609 1.609 0 1 1 0 3.218 1.609 1.609 0 0 1 0-3.218ZM310.77.435a1.608 1.608 0 1 1 0 3.217 1.608 1.608 0 0 1 0-3.217ZM320.417.438a1.609 1.609 0 1 1 0 3.217 1.609 1.609 0 0 1 0-3.217ZM330.072.435a1.608 1.608 0 1 1 0 3.217 1.608 1.608 0 0 1 0-3.217ZM339.73.438a1.608 1.608 0 1 1 0 3.217 1.608 1.608 0 0 1 0-3.217ZM349.375.435a1.609 1.609 0 1 1 0 3.218 1.609 1.609 0 0 1 0-3.218ZM359.029.435a1.609 1.609 0 1 1 0 3.218 1.609 1.609 0 0 1 0-3.218ZM368.676.435a1.61 1.61 0 1 1 0 3.219 1.61 1.61 0 0 1 0-3.219ZM378.331.435a1.609 1.609 0 1 1 0 3.218 1.609 1.609 0 0 1 0-3.218ZM387.987.435a1.608 1.608 0 1 1 0 3.217 1.608 1.608 0 0 1 0-3.217ZM397.633 77.651a1.61 1.61 0 1 1 0 3.219 1.61 1.61 0 0 1 0-3.219ZM407.286 77.651a1.609 1.609 0 1 1 0 3.218 1.609 1.609 0 0 1 0-3.218ZM416.935 77.651a1.608 1.608 0 1 1 0 3.217 1.608 1.608 0 0 1 0-3.217ZM426.591 77.651a1.61 1.61 0 1 1 0 3.219 1.61 1.61 0 0 1 0-3.219ZM436.245 77.651a1.609 1.609 0 1 1 0 3.218 1.609 1.609 0 0 1 0-3.218ZM445.894 77.651a1.608 1.608 0 1 1 0 3.217 1.608 1.608 0 0 1 0-3.217ZM397.633 68a1.61 1.61 0 1 1 0 3.22 1.61 1.61 0 0 1 0-3.22ZM407.286 68a1.609 1.609 0 1 1 0 3.218 1.609 1.609 0 0 1 0-3.217ZM416.935 68a1.608 1.608 0 1 1 0 3.218 1.608 1.608 0 0 1 0-3.217ZM426.591 68a1.61 1.61 0 1 1 0 3.219 1.61 1.61 0 0 1 0-3.218ZM436.245 68a1.609 1.609 0 1 1 0 3.218 1.609 1.609 0 0 1 0-3.217ZM397.633 58.346a1.61 1.61 0 1 1 0 3.219 1.61 1.61 0 0 1 0-3.218ZM407.286 58.346a1.609 1.609 0 1 1 0 3.218 1.609 1.609 0 0 1 0-3.218ZM416.935 58.346a1.608 1.608 0 1 1 0 3.217 1.608 1.608 0 0 1 0-3.217ZM426.591 58.346a1.61 1.61 0 1 1 0 3.219 1.61 1.61 0 0 1 0-3.219ZM436.245 58.346a1.609 1.609 0 1 1 0 3.218 1.609 1.609 0 0 1 0-3.218ZM397.633 48.696a1.61 1.61 0 1 1 0 3.218 1.61 1.61 0 0 1 0-3.218ZM407.286 48.696a1.609 1.609 0 1 1 0 3.217 1.609 1.609 0 0 1 0-3.217ZM416.935 48.696a1.608 1.608 0 1 1 0 3.216 1.608 1.608 0 0 1 0-3.216ZM426.59 48.696a1.61 1.61 0 1 1 0 3.218 1.61 1.61 0 0 1 0-3.218ZM436.245 48.696a1.609 1.609 0 1 1 0 3.217 1.609 1.609 0 0 1 0-3.217ZM397.633 39.045a1.61 1.61 0 1 1 0 3.219 1.61 1.61 0 0 1 0-3.219ZM407.286 39.045a1.609 1.609 0 1 1 0 3.217 1.609 1.609 0 0 1 0-3.217ZM416.935 39.048a1.608 1.608 0 1 1 0 3.217 1.608 1.608 0 0 1 0-3.217ZM426.59 39.045a1.61 1.61 0 1 1 0 3.219 1.61 1.61 0 0 1 0-3.219ZM436.245 39.048a1.609 1.609 0 1 1 0 3.218 1.609 1.609 0 0 1 0-3.218ZM397.633 29.39a1.61 1.61 0 1 1 0 3.22 1.61 1.61 0 0 1 0-3.22ZM407.286 29.39a1.609 1.609 0 1 1 0 3.218 1.609 1.609 0 0 1 0-3.217ZM416.935 29.39a1.608 1.608 0 1 1 0 3.218 1.608 1.608 0 0 1 0-3.217ZM426.59 29.39a1.61 1.61 0 1 1 0 3.22 1.61 1.61 0 0 1 0-3.22ZM397.633 19.74a1.61 1.61 0 1 1 0 3.218 1.61 1.61 0 0 1 0-3.218ZM407.286 19.74a1.609 1.609 0 1 1 0 3.217 1.609 1.609 0 0 1 0-3.217ZM416.935 19.74a1.608 1.608 0 1 1 0 3.217 1.608 1.608 0 0 1 0-3.217ZM397.633 10.09a1.61 1.61 0 1 1 0 3.218 1.61 1.61 0 0 1 0-3.219Z"/></g></g><defs><clipPath id="a"><path fill="#fff" d="M0 0h560v80H0z"/></clipPath></defs></svg>