<svg xmlns="http://www.w3.org/2000/svg" width="560" height="80" fill="none"><g clip-path="url(#a)"><mask id="b" width="265" height="175" x="102" y="-66" maskUnits="userSpaceOnUse" style="mask-type:luminance"><path fill="#fff" d="M366.479-65.3v173.944H102.347l16.086-106.49 78.929-67.453h169.117Z"/></mask><g fill="#FEB602" mask="url(#b)"><path d="M363.046 74.758a1.608 1.608 0 1 0-.001 3.217 1.608 1.608 0 0 0 .001-3.217ZM353.397 74.758a1.608 1.608 0 1 0 0 3.216 1.608 1.608 0 0 0 0-3.216ZM343.745 74.758a1.608 1.608 0 1 0-.001 3.217 1.608 1.608 0 0 0 .001-3.217ZM334.1 74.758a1.608 1.608 0 1 0 0 3.216 1.608 1.608 0 0 0 0-3.216ZM324.443 74.758a1.608 1.608 0 1 0 0 3.216 1.608 1.608 0 0 0 0-3.216ZM314.786 74.758a1.61 1.61 0 1 0 0 3.218 1.61 1.61 0 0 0 0-3.218ZM305.14 74.758a1.608 1.608 0 1 0 0 3.216 1.608 1.608 0 0 0 0-3.216ZM295.486 74.758a1.608 1.608 0 1 0 0 3.216 1.608 1.608 0 0 0 0-3.216ZM285.84 74.758a1.608 1.608 0 1 0-.001 3.217 1.608 1.608 0 0 0 .001-3.217ZM276.182 74.758a1.608 1.608 0 1 0 0 3.216 1.608 1.608 0 0 0 0-3.216ZM363.046 65.107a1.609 1.609 0 1 0 0 3.217 1.609 1.609 0 0 0 0-3.217ZM353.397 65.107a1.608 1.608 0 1 0 0 3.217 1.608 1.608 0 0 0 0-3.217ZM343.745 65.107a1.609 1.609 0 1 0 0 3.217 1.609 1.609 0 0 0 0-3.217ZM334.1 65.107a1.608 1.608 0 1 0 0 3.217 1.608 1.608 0 0 0 0-3.217ZM324.443 65.107a1.608 1.608 0 1 0 0 3.217 1.608 1.608 0 0 0 0-3.217ZM314.786 65.107a1.61 1.61 0 1 0 0 3.218 1.61 1.61 0 0 0 0-3.218ZM305.14 65.107a1.608 1.608 0 1 0 0 3.217 1.608 1.608 0 0 0 0-3.217ZM295.486 65.107a1.608 1.608 0 1 0 0 3.217 1.608 1.608 0 0 0 0-3.217ZM285.84 65.107a1.609 1.609 0 1 0 0 3.217 1.609 1.609 0 0 0 0-3.217ZM276.182 65.107a1.608 1.608 0 1 0 0 3.217 1.608 1.608 0 0 0 0-3.217ZM363.046 55.453a1.609 1.609 0 1 0 0 3.217 1.609 1.609 0 0 0 0-3.218ZM353.397 55.453a1.608 1.608 0 1 0 0 3.216 1.608 1.608 0 0 0 0-3.216ZM343.745 55.453a1.609 1.609 0 1 0 0 3.217 1.609 1.609 0 0 0 0-3.218ZM334.1 55.453a1.608 1.608 0 1 0 0 3.216 1.608 1.608 0 0 0 0-3.216ZM324.443 55.453a1.608 1.608 0 1 0 0 3.216 1.608 1.608 0 0 0 0-3.216ZM314.786 55.453a1.61 1.61 0 1 0 0 3.218 1.61 1.61 0 0 0 0-3.218ZM305.14 55.453a1.608 1.608 0 1 0 0 3.216 1.608 1.608 0 0 0 0-3.216ZM295.486 55.453a1.608 1.608 0 1 0 0 3.216 1.608 1.608 0 0 0 0-3.216ZM285.84 55.453a1.609 1.609 0 1 0 0 3.217 1.609 1.609 0 0 0 0-3.218ZM276.182 55.453a1.608 1.608 0 1 0 0 3.216 1.608 1.608 0 0 0 0-3.216ZM363.046 45.805a1.609 1.609 0 1 0 0 3.217 1.609 1.609 0 0 0 0-3.217ZM353.397 45.802a1.608 1.608 0 1 0 0 3.216 1.608 1.608 0 0 0 0-3.216ZM343.745 45.802a1.609 1.609 0 1 0 0 3.217 1.609 1.609 0 0 0 0-3.217ZM334.1 45.805a1.608 1.608 0 1 0 0 3.217 1.608 1.608 0 0 0 0-3.217ZM324.443 45.802a1.608 1.608 0 1 0 0 3.217 1.608 1.608 0 0 0 0-3.217ZM314.786 45.805a1.61 1.61 0 1 0 0 3.219 1.61 1.61 0 0 0 0-3.219ZM305.14 45.802a1.608 1.608 0 1 0 0 3.217 1.608 1.608 0 0 0 0-3.217ZM295.486 45.802a1.608 1.608 0 1 0 0 3.217 1.608 1.608 0 0 0 0-3.217ZM285.84 45.805a1.609 1.609 0 1 0 0 3.217 1.609 1.609 0 0 0 0-3.217ZM276.182 45.802a1.608 1.608 0 1 0 0 3.217 1.608 1.608 0 0 0 0-3.217ZM363.046 36.151a1.609 1.609 0 1 0 0 3.217 1.609 1.609 0 0 0 0-3.217ZM353.397 36.151a1.608 1.608 0 1 0 0 3.217 1.608 1.608 0 0 0 0-3.217ZM343.745 36.151a1.609 1.609 0 1 0 0 3.217 1.609 1.609 0 0 0 0-3.217ZM334.1 36.151a1.608 1.608 0 1 0 0 3.217 1.608 1.608 0 0 0 0-3.217ZM324.443 36.151a1.608 1.608 0 1 0 0 3.217 1.608 1.608 0 0 0 0-3.217ZM314.786 36.151a1.61 1.61 0 1 0 0 3.219 1.61 1.61 0 0 0 0-3.219ZM305.14 36.151a1.608 1.608 0 1 0 0 3.217 1.608 1.608 0 0 0 0-3.217ZM295.486 36.151a1.608 1.608 0 1 0 0 3.217 1.608 1.608 0 0 0 0-3.217ZM285.84 36.151a1.609 1.609 0 1 0 0 3.217 1.609 1.609 0 0 0 0-3.217ZM276.182 36.151a1.608 1.608 0 1 0 0 3.217 1.608 1.608 0 0 0 0-3.217ZM363.046 26.5a1.609 1.609 0 1 0-.001 3.218 1.609 1.609 0 0 0 .001-3.217ZM353.397 26.5a1.608 1.608 0 1 0 0 3.217 1.608 1.608 0 0 0 0-3.216ZM343.745 26.5a1.609 1.609 0 1 0-.001 3.218 1.609 1.609 0 0 0 .001-3.217ZM334.1 26.5a1.608 1.608 0 1 0 0 3.217 1.608 1.608 0 0 0 0-3.217ZM324.443 26.5a1.608 1.608 0 1 0 0 3.217 1.608 1.608 0 0 0 0-3.217ZM314.786 26.5a1.61 1.61 0 1 0 0 3.219 1.61 1.61 0 0 0 0-3.218ZM305.14 26.5a1.608 1.608 0 1 0 0 3.217 1.608 1.608 0 0 0 0-3.216ZM295.486 26.5a1.608 1.608 0 1 0 0 3.217 1.608 1.608 0 0 0 0-3.216ZM285.84 26.5a1.609 1.609 0 1 0 0 3.217 1.609 1.609 0 0 0 0-3.217ZM276.182 26.5a1.608 1.608 0 1 0 0 3.217 1.608 1.608 0 0 0 0-3.217ZM363.046 16.846a1.609 1.609 0 1 0 0 3.217 1.609 1.609 0 0 0 0-3.217ZM353.397 16.846a1.608 1.608 0 1 0 0 3.217 1.608 1.608 0 0 0 0-3.217ZM343.745 16.846a1.609 1.609 0 1 0 0 3.217 1.609 1.609 0 0 0 0-3.217ZM334.1 16.846a1.608 1.608 0 1 0 0 3.217 1.608 1.608 0 0 0 0-3.217ZM324.443 16.846a1.608 1.608 0 1 0 0 3.217 1.608 1.608 0 0 0 0-3.217ZM314.786 16.846a1.61 1.61 0 1 0 0 3.219 1.61 1.61 0 0 0 0-3.219ZM305.14 16.846a1.608 1.608 0 1 0 0 3.217 1.608 1.608 0 0 0 0-3.217ZM295.486 16.846a1.608 1.608 0 1 0 0 3.217 1.608 1.608 0 0 0 0-3.217ZM285.84 16.846a1.609 1.609 0 1 0 0 3.217 1.609 1.609 0 0 0 0-3.217ZM276.182 16.846a1.608 1.608 0 1 0 0 3.217 1.608 1.608 0 0 0 0-3.217ZM363.046 7.195a1.609 1.609 0 1 0 0 3.217 1.609 1.609 0 0 0 0-3.217ZM353.397 7.195a1.608 1.608 0 1 0 0 3.217 1.608 1.608 0 0 0 0-3.217ZM343.745 7.195a1.609 1.609 0 1 0 0 3.217 1.609 1.609 0 0 0 0-3.217ZM334.1 7.195a1.608 1.608 0 1 0 0 3.217 1.608 1.608 0 0 0 0-3.217ZM324.443 7.195a1.608 1.608 0 1 0 0 3.217 1.608 1.608 0 0 0 0-3.217ZM314.786 7.195a1.61 1.61 0 1 0 0 3.219 1.61 1.61 0 0 0 0-3.219ZM305.14 7.195a1.608 1.608 0 1 0 0 3.217 1.608 1.608 0 0 0 0-3.217ZM295.486 7.195a1.608 1.608 0 1 0 0 3.217 1.608 1.608 0 0 0 0-3.217ZM285.84 7.195a1.609 1.609 0 1 0 0 3.217 1.609 1.609 0 0 0 0-3.217ZM276.182 7.195a1.608 1.608 0 1 0 0 3.217 1.608 1.608 0 0 0 0-3.217ZM363.046-2.452a1.609 1.609 0 1 0 0 3.217 1.609 1.609 0 0 0 0-3.217ZM353.397-2.455a1.608 1.608 0 1 0 0 3.216 1.608 1.608 0 0 0 0-3.216ZM343.745-2.455a1.609 1.609 0 1 0 0 3.217 1.609 1.609 0 0 0 0-3.217ZM334.1-2.452a1.608 1.608 0 1 0 0 3.217 1.608 1.608 0 0 0 0-3.217ZM324.443-2.455a1.608 1.608 0 1 0 0 3.216 1.608 1.608 0 0 0 0-3.216ZM314.786-2.452a1.61 1.61 0 1 0 0 3.219 1.61 1.61 0 0 0 0-3.219ZM305.14-2.455a1.608 1.608 0 1 0 0 3.216 1.608 1.608 0 0 0 0-3.216ZM295.486-2.455a1.608 1.608 0 1 0 0 3.216 1.608 1.608 0 0 0 0-3.216ZM285.84-2.452a1.609 1.609 0 1 0 0 3.217 1.609 1.609 0 0 0 0-3.217ZM276.182-2.455a1.608 1.608 0 1 0 0 3.216 1.608 1.608 0 0 0 0-3.216ZM266.529 74.758a1.61 1.61 0 1 0 0 3.218 1.61 1.61 0 0 0 0-3.218ZM256.881 74.758a1.608 1.608 0 1 0-.001 3.217 1.608 1.608 0 0 0 .001-3.217ZM247.23 74.758a1.608 1.608 0 1 0 0 3.216 1.608 1.608 0 0 0 0-3.216ZM237.583 74.758a1.608 1.608 0 1 0-.001 3.217 1.608 1.608 0 0 0 .001-3.217ZM227.928 74.758a1.608 1.608 0 1 0 0 3.216 1.608 1.608 0 0 0 0-3.216ZM218.27 74.758a1.608 1.608 0 1 0 0 3.216 1.608 1.608 0 0 0 0-3.216ZM208.625 74.758a1.608 1.608 0 1 0-.001 3.217 1.608 1.608 0 0 0 .001-3.217ZM198.971 74.758a1.608 1.608 0 1 0-.001 3.217 1.608 1.608 0 0 0 .001-3.217ZM189.324 74.758a1.61 1.61 0 1 0 0 3.218 1.61 1.61 0 0 0 0-3.218ZM179.669 74.758a1.608 1.608 0 1 0-.001 3.217 1.608 1.608 0 0 0 .001-3.217ZM170.013 74.758a1.608 1.608 0 1 0 0 3.216 1.608 1.608 0 0 0 0-3.216ZM266.529 65.107a1.61 1.61 0 1 0 0 3.218 1.61 1.61 0 0 0 0-3.218ZM256.881 65.107a1.609 1.609 0 1 0 0 3.217 1.609 1.609 0 0 0 0-3.217ZM247.23 65.107a1.608 1.608 0 1 0 0 3.217 1.608 1.608 0 0 0 0-3.217ZM237.583 65.107a1.609 1.609 0 1 0 0 3.217 1.609 1.609 0 0 0 0-3.217ZM227.928 65.107a1.608 1.608 0 1 0 0 3.217 1.608 1.608 0 0 0 0-3.217ZM218.27 65.107a1.608 1.608 0 1 0 0 3.217 1.608 1.608 0 0 0 0-3.217ZM208.625 65.107a1.609 1.609 0 1 0 0 3.217 1.609 1.609 0 0 0 0-3.217ZM198.971 65.107a1.609 1.609 0 1 0 0 3.217 1.609 1.609 0 0 0 0-3.217ZM189.324 65.107a1.61 1.61 0 1 0 0 3.218 1.61 1.61 0 0 0 0-3.218ZM179.669 65.107a1.609 1.609 0 1 0 0 3.217 1.609 1.609 0 0 0 0-3.217ZM170.013 65.107a1.608 1.608 0 1 0 0 3.217 1.608 1.608 0 0 0 0-3.217ZM266.529 55.453a1.61 1.61 0 1 0 0 3.218 1.61 1.61 0 0 0 0-3.218ZM256.881 55.453a1.609 1.609 0 1 0 0 3.217 1.609 1.609 0 0 0 0-3.218ZM247.23 55.453a1.608 1.608 0 1 0 0 3.216 1.608 1.608 0 0 0 0-3.216ZM237.583 55.453a1.609 1.609 0 1 0 0 3.217 1.609 1.609 0 0 0 0-3.217ZM227.928 55.453a1.608 1.608 0 1 0 0 3.216 1.608 1.608 0 0 0 0-3.216ZM218.27 55.453a1.608 1.608 0 1 0 0 3.216 1.608 1.608 0 0 0 0-3.216ZM208.625 55.453a1.609 1.609 0 1 0 0 3.217 1.609 1.609 0 0 0 0-3.218ZM198.971 55.453a1.609 1.609 0 1 0 0 3.217 1.609 1.609 0 0 0 0-3.218ZM189.324 55.453a1.61 1.61 0 1 0 0 3.218 1.61 1.61 0 0 0 0-3.218ZM179.669 55.453a1.609 1.609 0 1 0 0 3.217 1.609 1.609 0 0 0 0-3.218ZM170.013 55.453a1.608 1.608 0 1 0 0 3.216 1.608 1.608 0 0 0 0-3.216ZM266.529 45.805a1.61 1.61 0 1 0 0 3.219 1.61 1.61 0 0 0 0-3.219ZM256.881 45.802a1.609 1.609 0 1 0 0 3.217 1.609 1.609 0 0 0 0-3.217ZM247.23 45.802a1.608 1.608 0 1 0 0 3.217 1.608 1.608 0 0 0 0-3.217ZM237.583 45.805a1.609 1.609 0 1 0 0 3.217 1.609 1.609 0 0 0 0-3.217ZM227.928 45.802a1.608 1.608 0 1 0 0 3.217 1.608 1.608 0 0 0 0-3.217ZM218.27 45.805a1.608 1.608 0 1 0 0 3.217 1.608 1.608 0 0 0 0-3.217ZM208.625 45.802a1.609 1.609 0 1 0 0 3.217 1.609 1.609 0 0 0 0-3.217ZM198.971 45.802a1.609 1.609 0 1 0 0 3.217 1.609 1.609 0 0 0 0-3.217ZM189.324 45.805a1.61 1.61 0 1 0 0 3.219 1.61 1.61 0 0 0 0-3.219ZM179.669 45.802a1.609 1.609 0 1 0 0 3.217 1.609 1.609 0 0 0 0-3.217ZM170.013 45.805a1.608 1.608 0 1 0 0 3.217 1.608 1.608 0 0 0 0-3.217ZM266.529 36.151a1.61 1.61 0 1 0 0 3.219 1.61 1.61 0 0 0 0-3.219ZM256.881 36.151a1.609 1.609 0 1 0 0 3.217 1.609 1.609 0 0 0 0-3.217ZM247.23 36.151a1.608 1.608 0 1 0 0 3.217 1.608 1.608 0 0 0 0-3.217ZM237.583 36.151a1.609 1.609 0 1 0 0 3.217 1.609 1.609 0 0 0 0-3.217ZM227.928 36.151a1.608 1.608 0 1 0 0 3.217 1.608 1.608 0 0 0 0-3.217ZM218.27 36.151a1.608 1.608 0 1 0 0 3.217 1.608 1.608 0 0 0 0-3.217ZM208.625 36.151a1.609 1.609 0 1 0 0 3.217 1.609 1.609 0 0 0 0-3.217ZM198.971 36.151a1.609 1.609 0 1 0 0 3.217 1.609 1.609 0 0 0 0-3.217ZM189.324 36.151a1.61 1.61 0 1 0 0 3.219 1.61 1.61 0 0 0 0-3.219ZM179.669 36.151a1.609 1.609 0 1 0 0 3.217 1.609 1.609 0 0 0 0-3.217ZM170.013 36.151a1.608 1.608 0 1 0 0 3.217 1.608 1.608 0 0 0 0-3.217ZM266.529 26.5a1.61 1.61 0 1 0 0 3.219 1.61 1.61 0 0 0 0-3.218ZM256.881 26.5a1.609 1.609 0 1 0-.001 3.218 1.609 1.609 0 0 0 .001-3.217ZM247.23 26.5a1.608 1.608 0 1 0 0 3.217 1.608 1.608 0 0 0 0-3.216ZM237.583 26.5a1.609 1.609 0 1 0-.001 3.218 1.609 1.609 0 0 0 .001-3.217ZM227.928 26.5a1.608 1.608 0 1 0 0 3.217 1.608 1.608 0 0 0 0-3.217ZM218.27 26.5a1.608 1.608 0 1 0 0 3.217 1.608 1.608 0 0 0 0-3.216ZM208.625 26.5a1.609 1.609 0 1 0-.001 3.218 1.609 1.609 0 0 0 .001-3.217ZM198.971 26.5a1.609 1.609 0 1 0-.001 3.218 1.609 1.609 0 0 0 .001-3.217ZM189.324 26.5a1.61 1.61 0 1 0 0 3.219 1.61 1.61 0 0 0 0-3.218ZM179.669 26.5a1.609 1.609 0 1 0 0 3.217 1.609 1.609 0 0 0 0-3.217ZM170.013 26.5a1.608 1.608 0 1 0 0 3.217 1.608 1.608 0 0 0 0-3.216ZM266.529 16.846a1.61 1.61 0 1 0 0 3.219 1.61 1.61 0 0 0 0-3.219ZM256.881 16.846a1.609 1.609 0 1 0 0 3.217 1.609 1.609 0 0 0 0-3.217ZM247.23 16.846a1.608 1.608 0 1 0 0 3.217 1.608 1.608 0 0 0 0-3.217ZM237.583 16.846a1.609 1.609 0 1 0 0 3.217 1.609 1.609 0 0 0 0-3.217ZM227.928 16.846a1.608 1.608 0 1 0 0 3.217 1.608 1.608 0 0 0 0-3.217ZM218.27 16.846a1.608 1.608 0 1 0 0 3.217 1.608 1.608 0 0 0 0-3.217ZM208.625 16.846a1.609 1.609 0 1 0 0 3.217 1.609 1.609 0 0 0 0-3.217ZM198.971 16.846a1.609 1.609 0 1 0 0 3.217 1.609 1.609 0 0 0 0-3.217ZM189.324 16.846a1.61 1.61 0 1 0 0 3.219 1.61 1.61 0 0 0 0-3.219ZM179.669 16.846a1.609 1.609 0 1 0 0 3.217 1.609 1.609 0 0 0 0-3.217ZM170.013 16.846a1.608 1.608 0 1 0 0 3.217 1.608 1.608 0 0 0 0-3.217ZM266.529 7.195a1.61 1.61 0 1 0 0 3.219 1.61 1.61 0 0 0 0-3.219ZM256.881 7.195a1.609 1.609 0 1 0 0 3.217 1.609 1.609 0 0 0 0-3.217ZM247.23 7.195a1.608 1.608 0 1 0 0 3.217 1.608 1.608 0 0 0 0-3.217ZM237.583 7.195a1.609 1.609 0 1 0 0 3.217 1.609 1.609 0 0 0 0-3.217ZM227.928 7.195a1.608 1.608 0 1 0 0 3.217 1.608 1.608 0 0 0 0-3.217ZM218.27 7.195a1.608 1.608 0 1 0 0 3.217 1.608 1.608 0 0 0 0-3.217ZM208.625 7.195a1.609 1.609 0 1 0 0 3.217 1.609 1.609 0 0 0 0-3.217ZM198.971 7.195a1.609 1.609 0 1 0 0 3.217 1.609 1.609 0 0 0 0-3.217ZM189.324 7.195a1.61 1.61 0 1 0 0 3.219 1.61 1.61 0 0 0 0-3.219ZM179.669 7.195a1.609 1.609 0 1 0 0 3.217 1.609 1.609 0 0 0 0-3.217ZM170.013 7.195a1.608 1.608 0 1 0 0 3.217 1.608 1.608 0 0 0 0-3.217ZM266.529-2.452a1.61 1.61 0 1 0 0 3.219 1.61 1.61 0 0 0 0-3.219ZM256.881-2.455a1.609 1.609 0 1 0 0 3.217 1.609 1.609 0 0 0 0-3.217ZM247.23-2.455a1.608 1.608 0 1 0 0 3.216 1.608 1.608 0 0 0 0-3.216ZM237.583-2.452a1.609 1.609 0 1 0 0 3.217 1.609 1.609 0 0 0 0-3.217ZM227.928-2.455a1.608 1.608 0 1 0 0 3.216 1.608 1.608 0 0 0 0-3.216ZM218.27-2.452a1.608 1.608 0 1 0 0 3.217 1.608 1.608 0 0 0 0-3.217ZM208.625-2.455a1.609 1.609 0 1 0 0 3.217 1.609 1.609 0 0 0 0-3.217ZM198.971-2.455a1.609 1.609 0 1 0 0 3.217 1.609 1.609 0 0 0 0-3.217ZM189.324-2.452a1.61 1.61 0 1 0 0 3.219 1.61 1.61 0 0 0 0-3.219ZM179.669-2.455a1.609 1.609 0 1 0 0 3.217 1.609 1.609 0 0 0 0-3.217ZM170.013-2.452a1.608 1.608 0 1 0 0 3.217 1.608 1.608 0 0 0 0-3.217ZM160.367 74.758a1.61 1.61 0 1 0 0 3.218 1.61 1.61 0 0 0 0-3.218ZM150.714 74.758a1.608 1.608 0 1 0-.001 3.217 1.608 1.608 0 0 0 .001-3.217ZM141.065 74.758a1.608 1.608 0 1 0 0 3.216 1.608 1.608 0 0 0 0-3.216ZM131.408 74.758a1.61 1.61 0 1 0 0 3.218 1.61 1.61 0 0 0 0-3.218ZM121.755 74.758a1.608 1.608 0 1 0-.001 3.217 1.608 1.608 0 0 0 .001-3.217ZM112.106 74.758a1.608 1.608 0 1 0 0 3.216 1.608 1.608 0 0 0 0-3.216ZM160.367 65.107a1.61 1.61 0 1 0 0 3.218 1.61 1.61 0 0 0 0-3.218ZM150.714 65.107a1.609 1.609 0 1 0 0 3.217 1.609 1.609 0 0 0 0-3.217ZM141.065 65.107a1.608 1.608 0 1 0 0 3.217 1.608 1.608 0 0 0 0-3.217ZM131.408 65.107a1.61 1.61 0 1 0 0 3.218 1.61 1.61 0 0 0 0-3.218ZM121.755 65.107a1.609 1.609 0 1 0 0 3.217 1.609 1.609 0 0 0 0-3.217ZM112.106 65.107a1.608 1.608 0 1 0 0 3.217 1.608 1.608 0 0 0 0-3.217ZM160.367 55.453a1.61 1.61 0 1 0 0 3.218 1.61 1.61 0 0 0 0-3.218ZM150.714 55.453a1.609 1.609 0 1 0 0 3.217 1.609 1.609 0 0 0 0-3.217ZM141.065 55.453a1.608 1.608 0 1 0 0 3.216 1.608 1.608 0 0 0 0-3.216ZM131.408 55.453a1.61 1.61 0 1 0 0 3.218 1.61 1.61 0 0 0 0-3.218ZM121.755 55.453a1.609 1.609 0 1 0 0 3.217 1.609 1.609 0 0 0 0-3.218ZM112.106 55.453a1.608 1.608 0 1 0 0 3.216 1.608 1.608 0 0 0 0-3.216ZM160.367 45.802a1.61 1.61 0 1 0 0 3.219 1.61 1.61 0 0 0 0-3.219ZM150.714 45.802a1.609 1.609 0 1 0 0 3.217 1.609 1.609 0 0 0 0-3.217ZM141.065 45.805a1.608 1.608 0 1 0 0 3.217 1.608 1.608 0 0 0 0-3.217ZM131.409 45.802a1.61 1.61 0 1 0 0 3.219 1.61 1.61 0 0 0 0-3.219ZM121.755 45.805a1.609 1.609 0 1 0 0 3.217 1.609 1.609 0 0 0 0-3.217ZM112.106 45.802a1.608 1.608 0 1 0 0 3.217 1.608 1.608 0 0 0 0-3.217ZM160.367 36.151a1.61 1.61 0 1 0 0 3.219 1.61 1.61 0 0 0 0-3.219ZM150.714 36.151a1.609 1.609 0 1 0 0 3.217 1.609 1.609 0 0 0 0-3.217ZM141.065 36.151a1.608 1.608 0 1 0 0 3.217 1.608 1.608 0 0 0 0-3.217ZM131.409 36.151a1.61 1.61 0 1 0 0 3.219 1.61 1.61 0 0 0 0-3.219ZM121.755 36.151a1.609 1.609 0 1 0 0 3.217 1.609 1.609 0 0 0 0-3.217ZM112.106 36.151a1.608 1.608 0 1 0 0 3.217 1.608 1.608 0 0 0 0-3.217ZM160.367 26.5a1.61 1.61 0 1 0 0 3.219 1.61 1.61 0 0 0 0-3.218ZM150.714 26.5a1.609 1.609 0 1 0-.001 3.218 1.609 1.609 0 0 0 .001-3.217ZM141.065 26.5a1.608 1.608 0 1 0 0 3.217 1.608 1.608 0 0 0 0-3.216ZM131.409 26.5a1.61 1.61 0 1 0 0 3.219 1.61 1.61 0 0 0 0-3.219ZM121.755 26.5a1.609 1.609 0 1 0-.001 3.218 1.609 1.609 0 0 0 .001-3.217ZM160.367 16.846a1.61 1.61 0 1 0 0 3.219 1.61 1.61 0 0 0 0-3.219ZM150.714 16.846a1.609 1.609 0 1 0 0 3.217 1.609 1.609 0 0 0 0-3.217ZM141.065 16.846a1.608 1.608 0 1 0 0 3.217 1.608 1.608 0 0 0 0-3.217ZM131.409 16.846a1.61 1.61 0 1 0 0 3.219 1.61 1.61 0 0 0 0-3.219ZM121.755 16.846a1.609 1.609 0 1 0 0 3.217 1.609 1.609 0 0 0 0-3.217ZM160.367 7.195a1.61 1.61 0 1 0 0 3.219 1.61 1.61 0 0 0 0-3.219ZM150.714 7.195a1.609 1.609 0 1 0 0 3.217 1.609 1.609 0 0 0 0-3.217ZM141.065 7.195a1.608 1.608 0 1 0 0 3.217 1.608 1.608 0 0 0 0-3.217ZM131.41 7.195a1.61 1.61 0 1 0 0 3.219 1.61 1.61 0 0 0 0-3.219ZM121.755 7.195a1.609 1.609 0 1 0 0 3.217 1.609 1.609 0 0 0 0-3.217ZM160.367-2.455a1.61 1.61 0 1 0 0 3.218 1.61 1.61 0 0 0 0-3.218ZM150.714-2.455a1.609 1.609 0 1 0 0 3.217 1.609 1.609 0 0 0 0-3.217ZM141.065-2.452a1.608 1.608 0 1 0 0 3.217 1.608 1.608 0 0 0 0-3.217ZM131.41-2.455a1.61 1.61 0 1 0 0 3.218 1.61 1.61 0 0 0 0-3.218ZM121.755-2.452a1.609 1.609 0 1 0 0 3.217 1.609 1.609 0 0 0 0-3.217Z"/></g><mask id="c" width="265" height="175" x="369" y="-66" maskUnits="userSpaceOnUse" style="mask-type:luminance"><path fill="#fff" d="M369.521-65.3v173.944h264.132L617.567 2.154l-78.929-67.453H369.521Z"/></mask><g fill="#FEB602" mask="url(#c)"><path d="M372.954 74.758a1.608 1.608 0 1 1 .001 3.217 1.608 1.608 0 0 1-.001-3.217ZM382.603 74.758a1.608 1.608 0 1 1 0 3.216 1.608 1.608 0 0 1 0-3.216ZM392.255 74.758a1.608 1.608 0 1 1 .001 3.217 1.608 1.608 0 0 1-.001-3.217ZM401.9 74.758a1.608 1.608 0 1 1 0 3.216 1.608 1.608 0 0 1 0-3.216ZM411.557 74.758a1.608 1.608 0 1 1 0 3.216 1.608 1.608 0 0 1 0-3.216ZM421.214 74.758a1.61 1.61 0 1 1 0 3.218 1.61 1.61 0 0 1 0-3.218ZM430.86 74.758a1.608 1.608 0 1 1 0 3.216 1.608 1.608 0 0 1 0-3.216ZM440.514 74.758a1.608 1.608 0 1 1 0 3.216 1.608 1.608 0 0 1 0-3.216ZM450.16 74.758a1.608 1.608 0 1 1 .001 3.217 1.608 1.608 0 0 1-.001-3.217ZM459.818 74.758a1.608 1.608 0 1 1 0 3.216 1.608 1.608 0 0 1 0-3.216ZM372.954 65.107a1.609 1.609 0 1 1 0 3.217 1.609 1.609 0 0 1 0-3.217ZM382.603 65.107a1.608 1.608 0 1 1 0 3.217 1.608 1.608 0 0 1 0-3.217ZM392.255 65.107a1.609 1.609 0 1 1 0 3.217 1.609 1.609 0 0 1 0-3.217ZM401.9 65.107a1.608 1.608 0 1 1 0 3.217 1.608 1.608 0 0 1 0-3.217ZM411.557 65.107a1.608 1.608 0 1 1 0 3.217 1.608 1.608 0 0 1 0-3.217ZM421.214 65.107a1.61 1.61 0 1 1 0 3.218 1.61 1.61 0 0 1 0-3.218ZM430.86 65.107a1.608 1.608 0 1 1 0 3.217 1.608 1.608 0 0 1 0-3.217ZM440.514 65.107a1.608 1.608 0 1 1 0 3.217 1.608 1.608 0 0 1 0-3.217ZM450.16 65.107a1.609 1.609 0 1 1 0 3.217 1.609 1.609 0 0 1 0-3.217ZM459.818 65.107a1.608 1.608 0 1 1 0 3.217 1.608 1.608 0 0 1 0-3.217ZM372.954 55.453a1.609 1.609 0 1 1 0 3.217 1.609 1.609 0 0 1 0-3.218ZM382.603 55.453a1.608 1.608 0 1 1 0 3.216 1.608 1.608 0 0 1 0-3.216ZM392.255 55.453a1.609 1.609 0 1 1 0 3.217 1.609 1.609 0 0 1 0-3.218ZM401.9 55.453a1.608 1.608 0 1 1 0 3.216 1.608 1.608 0 0 1 0-3.216ZM411.557 55.453a1.608 1.608 0 1 1 0 3.216 1.608 1.608 0 0 1 0-3.216ZM421.214 55.453a1.61 1.61 0 1 1 0 3.218 1.61 1.61 0 0 1 0-3.218ZM430.86 55.453a1.608 1.608 0 1 1 0 3.216 1.608 1.608 0 0 1 0-3.216ZM440.514 55.453a1.608 1.608 0 1 1 0 3.216 1.608 1.608 0 0 1 0-3.216ZM450.16 55.453a1.609 1.609 0 1 1 0 3.217 1.609 1.609 0 0 1 0-3.218ZM459.818 55.453a1.608 1.608 0 1 1 0 3.216 1.608 1.608 0 0 1 0-3.216ZM372.954 45.805a1.609 1.609 0 1 1 0 3.217 1.609 1.609 0 0 1 0-3.217ZM382.603 45.802a1.608 1.608 0 1 1 0 3.216 1.608 1.608 0 0 1 0-3.216ZM392.255 45.802a1.609 1.609 0 1 1 0 3.217 1.609 1.609 0 0 1 0-3.217ZM401.9 45.805a1.608 1.608 0 1 1 0 3.217 1.608 1.608 0 0 1 0-3.217ZM411.557 45.802a1.608 1.608 0 1 1 0 3.217 1.608 1.608 0 0 1 0-3.217ZM421.214 45.805a1.61 1.61 0 1 1 0 3.219 1.61 1.61 0 0 1 0-3.219ZM430.86 45.802a1.608 1.608 0 1 1 0 3.217 1.608 1.608 0 0 1 0-3.217ZM440.514 45.802a1.608 1.608 0 1 1 0 3.217 1.608 1.608 0 0 1 0-3.217ZM450.16 45.805a1.609 1.609 0 1 1 0 3.217 1.609 1.609 0 0 1 0-3.217ZM459.818 45.802a1.608 1.608 0 1 1 0 3.217 1.608 1.608 0 0 1 0-3.217ZM372.954 36.151a1.609 1.609 0 1 1 0 3.217 1.609 1.609 0 0 1 0-3.217ZM382.603 36.151a1.608 1.608 0 1 1 0 3.217 1.608 1.608 0 0 1 0-3.217ZM392.255 36.151a1.609 1.609 0 1 1 0 3.217 1.609 1.609 0 0 1 0-3.217ZM401.9 36.151a1.608 1.608 0 1 1 0 3.217 1.608 1.608 0 0 1 0-3.217ZM411.557 36.151a1.608 1.608 0 1 1 0 3.217 1.608 1.608 0 0 1 0-3.217ZM421.214 36.151a1.61 1.61 0 1 1 0 3.219 1.61 1.61 0 0 1 0-3.219ZM430.86 36.151a1.608 1.608 0 1 1 0 3.217 1.608 1.608 0 0 1 0-3.217ZM440.514 36.151a1.608 1.608 0 1 1 0 3.217 1.608 1.608 0 0 1 0-3.217ZM450.16 36.151a1.609 1.609 0 1 1 0 3.217 1.609 1.609 0 0 1 0-3.217ZM459.818 36.151a1.608 1.608 0 1 1 0 3.217 1.608 1.608 0 0 1 0-3.217ZM372.954 26.5a1.609 1.609 0 1 1 .001 3.218 1.609 1.609 0 0 1-.001-3.217ZM382.603 26.5a1.608 1.608 0 1 1 0 3.217 1.608 1.608 0 0 1 0-3.216ZM392.255 26.5a1.609 1.609 0 1 1 .001 3.218 1.609 1.609 0 0 1-.001-3.217ZM401.9 26.5a1.608 1.608 0 1 1 0 3.217 1.608 1.608 0 0 1 0-3.217ZM411.557 26.5a1.608 1.608 0 1 1 0 3.217 1.608 1.608 0 0 1 0-3.217ZM421.214 26.5a1.61 1.61 0 1 1 0 3.219 1.61 1.61 0 0 1 0-3.218ZM430.86 26.5a1.608 1.608 0 1 1 0 3.217 1.608 1.608 0 0 1 0-3.216ZM440.514 26.5a1.608 1.608 0 1 1 0 3.217 1.608 1.608 0 0 1 0-3.216ZM450.16 26.5a1.609 1.609 0 1 1 0 3.217 1.609 1.609 0 0 1 0-3.217ZM459.818 26.5a1.608 1.608 0 1 1 0 3.217 1.608 1.608 0 0 1 0-3.217ZM372.954 16.846a1.609 1.609 0 1 1 0 3.217 1.609 1.609 0 0 1 0-3.217ZM382.603 16.846a1.608 1.608 0 1 1 0 3.217 1.608 1.608 0 0 1 0-3.217ZM392.255 16.846a1.609 1.609 0 1 1 0 3.217 1.609 1.609 0 0 1 0-3.217ZM401.9 16.846a1.608 1.608 0 1 1 0 3.217 1.608 1.608 0 0 1 0-3.217ZM411.557 16.846a1.608 1.608 0 1 1 0 3.217 1.608 1.608 0 0 1 0-3.217ZM421.214 16.846a1.61 1.61 0 1 1 0 3.219 1.61 1.61 0 0 1 0-3.219ZM430.86 16.846a1.608 1.608 0 1 1 0 3.217 1.608 1.608 0 0 1 0-3.217ZM440.514 16.846a1.608 1.608 0 1 1 0 3.217 1.608 1.608 0 0 1 0-3.217ZM450.16 16.846a1.609 1.609 0 1 1 0 3.217 1.609 1.609 0 0 1 0-3.217ZM459.818 16.846a1.608 1.608 0 1 1 0 3.217 1.608 1.608 0 0 1 0-3.217ZM372.954 7.195a1.609 1.609 0 1 1 0 3.217 1.609 1.609 0 0 1 0-3.217ZM382.603 7.195a1.608 1.608 0 1 1 0 3.217 1.608 1.608 0 0 1 0-3.217ZM392.255 7.195a1.609 1.609 0 1 1 0 3.217 1.609 1.609 0 0 1 0-3.217ZM401.9 7.195a1.608 1.608 0 1 1 0 3.217 1.608 1.608 0 0 1 0-3.217ZM411.557 7.195a1.608 1.608 0 1 1 0 3.217 1.608 1.608 0 0 1 0-3.217ZM421.214 7.195a1.61 1.61 0 1 1 0 3.219 1.61 1.61 0 0 1 0-3.219ZM430.86 7.195a1.608 1.608 0 1 1 0 3.217 1.608 1.608 0 0 1 0-3.217ZM440.514 7.195a1.608 1.608 0 1 1 0 3.217 1.608 1.608 0 0 1 0-3.217ZM450.16 7.195a1.609 1.609 0 1 1 0 3.217 1.609 1.609 0 0 1 0-3.217ZM459.818 7.195a1.608 1.608 0 1 1 0 3.217 1.608 1.608 0 0 1 0-3.217ZM372.954-2.452a1.609 1.609 0 1 1 0 3.217 1.609 1.609 0 0 1 0-3.217ZM382.603-2.455a1.608 1.608 0 1 1 0 3.216 1.608 1.608 0 0 1 0-3.216ZM392.255-2.455a1.609 1.609 0 1 1 0 3.217 1.609 1.609 0 0 1 0-3.217ZM401.9-2.452a1.608 1.608 0 1 1 0 3.217 1.608 1.608 0 0 1 0-3.217ZM411.557-2.455a1.608 1.608 0 1 1 0 3.216 1.608 1.608 0 0 1 0-3.216ZM421.214-2.452a1.61 1.61 0 1 1 0 3.219 1.61 1.61 0 0 1 0-3.219ZM430.86-2.455a1.608 1.608 0 1 1 0 3.216 1.608 1.608 0 0 1 0-3.216ZM440.514-2.455a1.608 1.608 0 1 1 0 3.216 1.608 1.608 0 0 1 0-3.216ZM450.16-2.452a1.609 1.609 0 1 1 0 3.217 1.609 1.609 0 0 1 0-3.217ZM459.818-2.455a1.608 1.608 0 1 1 0 3.216 1.608 1.608 0 0 1 0-3.216ZM469.471 74.758a1.61 1.61 0 1 1 0 3.218 1.61 1.61 0 0 1 0-3.218ZM479.119 74.758a1.608 1.608 0 1 1 .001 3.217 1.608 1.608 0 0 1-.001-3.217ZM488.77 74.758a1.608 1.608 0 1 1 0 3.216 1.608 1.608 0 0 1 0-3.216ZM498.417 74.758a1.608 1.608 0 1 1 .001 3.217 1.608 1.608 0 0 1-.001-3.217ZM508.072 74.758a1.608 1.608 0 1 1 0 3.216 1.608 1.608 0 0 1 0-3.216ZM517.73 74.758a1.608 1.608 0 1 1 0 3.216 1.608 1.608 0 0 1 0-3.216ZM527.375 74.758a1.608 1.608 0 1 1 .001 3.217 1.608 1.608 0 0 1-.001-3.217ZM537.029 74.758a1.608 1.608 0 1 1 .001 3.217 1.608 1.608 0 0 1-.001-3.217ZM546.676 74.758a1.61 1.61 0 1 1 0 3.218 1.61 1.61 0 0 1 0-3.218ZM556.331 74.758a1.608 1.608 0 1 1 .001 3.217 1.608 1.608 0 0 1-.001-3.217ZM469.471 65.107a1.61 1.61 0 1 1 0 3.218 1.61 1.61 0 0 1 0-3.218ZM479.119 65.107a1.609 1.609 0 1 1 0 3.217 1.609 1.609 0 0 1 0-3.217ZM488.77 65.107a1.608 1.608 0 1 1 0 3.217 1.608 1.608 0 0 1 0-3.217ZM498.417 65.107a1.609 1.609 0 1 1 0 3.217 1.609 1.609 0 0 1 0-3.217ZM508.072 65.107a1.608 1.608 0 1 1 0 3.217 1.608 1.608 0 0 1 0-3.217ZM517.73 65.107a1.608 1.608 0 1 1 0 3.217 1.608 1.608 0 0 1 0-3.217ZM527.375 65.107a1.609 1.609 0 1 1 0 3.217 1.609 1.609 0 0 1 0-3.217ZM537.029 65.107a1.609 1.609 0 1 1 0 3.217 1.609 1.609 0 0 1 0-3.217ZM546.676 65.107a1.61 1.61 0 1 1 0 3.218 1.61 1.61 0 0 1 0-3.218ZM556.331 65.107a1.609 1.609 0 1 1 0 3.217 1.609 1.609 0 0 1 0-3.217ZM469.471 55.453a1.61 1.61 0 1 1 0 3.218 1.61 1.61 0 0 1 0-3.218ZM479.119 55.453a1.609 1.609 0 1 1 0 3.217 1.609 1.609 0 0 1 0-3.218ZM488.77 55.453a1.608 1.608 0 1 1 0 3.216 1.608 1.608 0 0 1 0-3.216ZM498.417 55.453a1.609 1.609 0 1 1 0 3.217 1.609 1.609 0 0 1 0-3.217ZM508.072 55.453a1.608 1.608 0 1 1 0 3.216 1.608 1.608 0 0 1 0-3.216ZM517.73 55.453a1.608 1.608 0 1 1 0 3.216 1.608 1.608 0 0 1 0-3.216ZM527.375 55.453a1.609 1.609 0 1 1 0 3.217 1.609 1.609 0 0 1 0-3.218ZM537.029 55.453a1.609 1.609 0 1 1 0 3.217 1.609 1.609 0 0 1 0-3.218ZM546.676 55.453a1.61 1.61 0 1 1 0 3.218 1.61 1.61 0 0 1 0-3.218ZM556.331 55.453a1.609 1.609 0 1 1 0 3.217 1.609 1.609 0 0 1 0-3.218ZM469.471 45.805a1.61 1.61 0 1 1 0 3.219 1.61 1.61 0 0 1 0-3.219ZM479.119 45.802a1.609 1.609 0 1 1 0 3.217 1.609 1.609 0 0 1 0-3.217ZM488.77 45.802a1.608 1.608 0 1 1 0 3.217 1.608 1.608 0 0 1 0-3.217ZM498.417 45.805a1.609 1.609 0 1 1 0 3.217 1.609 1.609 0 0 1 0-3.217ZM508.072 45.802a1.608 1.608 0 1 1 0 3.217 1.608 1.608 0 0 1 0-3.217ZM517.73 45.805a1.608 1.608 0 1 1 0 3.217 1.608 1.608 0 0 1 0-3.217ZM527.375 45.802a1.609 1.609 0 1 1 0 3.217 1.609 1.609 0 0 1 0-3.217ZM537.029 45.802a1.609 1.609 0 1 1 0 3.217 1.609 1.609 0 0 1 0-3.217ZM546.676 45.805a1.61 1.61 0 1 1 0 3.219 1.61 1.61 0 0 1 0-3.219ZM556.331 45.802a1.609 1.609 0 1 1 0 3.217 1.609 1.609 0 0 1 0-3.217ZM469.471 36.151a1.61 1.61 0 1 1 0 3.219 1.61 1.61 0 0 1 0-3.219ZM479.119 36.151a1.609 1.609 0 1 1 0 3.217 1.609 1.609 0 0 1 0-3.217ZM488.77 36.151a1.608 1.608 0 1 1 0 3.217 1.608 1.608 0 0 1 0-3.217ZM498.417 36.151a1.609 1.609 0 1 1 0 3.217 1.609 1.609 0 0 1 0-3.217ZM508.072 36.151a1.608 1.608 0 1 1 0 3.217 1.608 1.608 0 0 1 0-3.217ZM517.73 36.151a1.608 1.608 0 1 1 0 3.217 1.608 1.608 0 0 1 0-3.217ZM527.375 36.151a1.609 1.609 0 1 1 0 3.217 1.609 1.609 0 0 1 0-3.217ZM537.029 36.151a1.609 1.609 0 1 1 0 3.217 1.609 1.609 0 0 1 0-3.217ZM546.676 36.151a1.61 1.61 0 1 1 0 3.219 1.61 1.61 0 0 1 0-3.219ZM556.331 36.151a1.609 1.609 0 1 1 0 3.217 1.609 1.609 0 0 1 0-3.217ZM469.471 26.5a1.61 1.61 0 1 1 0 3.219 1.61 1.61 0 0 1 0-3.218ZM479.119 26.5a1.609 1.609 0 1 1 .001 3.218 1.609 1.609 0 0 1-.001-3.217ZM488.77 26.5a1.608 1.608 0 1 1 0 3.217 1.608 1.608 0 0 1 0-3.216ZM498.417 26.5a1.609 1.609 0 1 1 .001 3.218 1.609 1.609 0 0 1-.001-3.217ZM508.072 26.5a1.608 1.608 0 1 1 0 3.217 1.608 1.608 0 0 1 0-3.217ZM517.73 26.5a1.608 1.608 0 1 1 0 3.217 1.608 1.608 0 0 1 0-3.216ZM527.375 26.5a1.609 1.609 0 1 1 .001 3.218 1.609 1.609 0 0 1-.001-3.217ZM537.029 26.5a1.609 1.609 0 1 1 .001 3.218 1.609 1.609 0 0 1-.001-3.217ZM546.676 26.5a1.61 1.61 0 1 1 0 3.219 1.61 1.61 0 0 1 0-3.218ZM556.331 26.5a1.609 1.609 0 1 1 0 3.217 1.609 1.609 0 0 1 0-3.217ZM469.471 16.846a1.61 1.61 0 1 1 0 3.219 1.61 1.61 0 0 1 0-3.219ZM479.119 16.846a1.609 1.609 0 1 1 0 3.217 1.609 1.609 0 0 1 0-3.217ZM488.77 16.846a1.608 1.608 0 1 1 0 3.217 1.608 1.608 0 0 1 0-3.217ZM498.417 16.846a1.609 1.609 0 1 1 0 3.217 1.609 1.609 0 0 1 0-3.217ZM508.072 16.846a1.608 1.608 0 1 1 0 3.217 1.608 1.608 0 0 1 0-3.217ZM517.73 16.846a1.608 1.608 0 1 1 0 3.217 1.608 1.608 0 0 1 0-3.217ZM527.375 16.846a1.609 1.609 0 1 1 0 3.217 1.609 1.609 0 0 1 0-3.217ZM537.029 16.846a1.609 1.609 0 1 1 0 3.217 1.609 1.609 0 0 1 0-3.217ZM546.676 16.846a1.61 1.61 0 1 1 0 3.219 1.61 1.61 0 0 1 0-3.219ZM556.331 16.846a1.609 1.609 0 1 1 0 3.217 1.609 1.609 0 0 1 0-3.217ZM469.471 7.195a1.61 1.61 0 1 1 0 3.219 1.61 1.61 0 0 1 0-3.219ZM479.119 7.195a1.609 1.609 0 1 1 0 3.217 1.609 1.609 0 0 1 0-3.217ZM488.77 7.195a1.608 1.608 0 1 1 0 3.217 1.608 1.608 0 0 1 0-3.217ZM498.417 7.195a1.609 1.609 0 1 1 0 3.217 1.609 1.609 0 0 1 0-3.217ZM508.072 7.195a1.608 1.608 0 1 1 0 3.217 1.608 1.608 0 0 1 0-3.217ZM517.73 7.195a1.608 1.608 0 1 1 0 3.217 1.608 1.608 0 0 1 0-3.217ZM527.375 7.195a1.609 1.609 0 1 1 0 3.217 1.609 1.609 0 0 1 0-3.217ZM537.029 7.195a1.609 1.609 0 1 1 0 3.217 1.609 1.609 0 0 1 0-3.217ZM546.676 7.195a1.61 1.61 0 1 1 0 3.219 1.61 1.61 0 0 1 0-3.219ZM556.331 7.195a1.609 1.609 0 1 1 0 3.217 1.609 1.609 0 0 1 0-3.217ZM469.471-2.452a1.61 1.61 0 1 1 0 3.219 1.61 1.61 0 0 1 0-3.219ZM479.119-2.455a1.609 1.609 0 1 1 0 3.217 1.609 1.609 0 0 1 0-3.217ZM488.77-2.455a1.608 1.608 0 1 1 0 3.216 1.608 1.608 0 0 1 0-3.216ZM498.417-2.452a1.609 1.609 0 1 1 0 3.217 1.609 1.609 0 0 1 0-3.217ZM508.072-2.455a1.608 1.608 0 1 1 0 3.216 1.608 1.608 0 0 1 0-3.216ZM517.73-2.452a1.608 1.608 0 1 1 0 3.217 1.608 1.608 0 0 1 0-3.217ZM527.375-2.455a1.609 1.609 0 1 1 0 3.217 1.609 1.609 0 0 1 0-3.217ZM537.029-2.455a1.609 1.609 0 1 1 0 3.217 1.609 1.609 0 0 1 0-3.217ZM546.676-2.452a1.61 1.61 0 1 1 0 3.219 1.61 1.61 0 0 1 0-3.219ZM556.331-2.455a1.609 1.609 0 1 1 0 3.217 1.609 1.609 0 0 1 0-3.217Z"/></g></g><defs><clipPath id="a"><path fill="#fff" d="M0 0h560v80H0z"/></clipPath></defs></svg>